<svg width="39" height="39" viewBox="0 0 39 39" fill="none" xmlns="http://www.w3.org/2000/svg">
<path d="M4.875 2.4375H2.4375V34.125C2.4375 34.7715 2.69431 35.3915 3.15143 35.8486C3.60855 36.3057 4.22853 36.5625 4.875 36.5625H36.5625V34.125H4.875V2.4375Z" fill="#3B82F6"/>
<path d="M36.5625 10.9688H28.0312V13.4062H32.4066L23.1562 22.6566L17.9278 17.4159C17.8145 17.3017 17.6797 17.211 17.5312 17.1492C17.3827 17.0873 17.2234 17.0554 17.0625 17.0554C16.9016 17.0554 16.7423 17.0873 16.5938 17.1492C16.4453 17.211 16.3105 17.3017 16.1972 17.4159L7.3125 26.3128L9.03094 28.0312L17.0625 19.9997L22.2909 25.2403C22.4042 25.3545 22.539 25.4452 22.6875 25.5071C22.8361 25.569 22.9954 25.6008 23.1562 25.6008C23.3171 25.6008 23.4764 25.569 23.625 25.5071C23.7735 25.4452 23.9083 25.3545 24.0216 25.2403L34.125 15.1247V19.5H36.5625V10.9688Z" fill="#3B82F6"/>
</svg>
